<?xml version="1.0" encoding="iso-8859-1"?>
<!-- Generator: Adobe Illustrator 19.0.0, SVG Export Plug-In . SVG Version: 6.00 Build 0)  -->
<svg version="1.1" id="Layer_1" xmlns="http://www.w3.org/2000/svg" xmlns:xlink="http://www.w3.org/1999/xlink" x="0px" y="0px"
	 viewBox="0 0 512 512" style="enable-background:new 0 0 512 512;" xml:space="preserve">
<g>
	<g>
		<path d="M490.856,114.4c-17.443-19.482-41.647-28.647-65.535-27.722c0.926-23.887-8.24-48.09-27.722-65.535
			c-32.015-28.666-81.21-28.113-112.602,1.235c-33.286,31.119-35.161,82.448-5.809,115.959L138.337,279.189
			c-33.514-29.356-84.849-27.477-115.968,5.817c-29.343,31.396-29.889,80.589-1.218,112.601
			c17.444,19.476,41.644,28.641,65.528,27.714c-0.926,23.883,8.237,48.084,27.714,65.527c32.011,28.671,81.205,28.125,112.601-1.218
			c33.296-31.118,35.173-82.454,5.817-115.968l140.851-140.852c33.511,29.353,84.84,27.478,115.959-5.809
			C518.97,195.61,519.523,146.416,490.856,114.4z M464.002,205.456c-18.559,18.559-48.575,19.544-68.325,2.237l-11.758-10.305
			c-6.616-5.799-16.596-5.47-22.817,0.75L198.137,361.101c-6.221,6.221-6.549,16.201-0.75,22.817l10.305,11.758
			c17.306,19.751,16.322,49.766-2.238,68.326c-19.535,19.535-51.319,19.535-70.855,0c-9.929-9.929-15.092-23.211-14.542-37.392
			l0.698-18.03c0.376-9.724-7.609-17.71-17.334-17.334l-18.03,0.698c-14.181,0.55-27.463-4.613-37.392-14.542
			c-19.537-19.537-19.537-51.319-0.001-70.856c18.559-18.559,48.575-19.543,68.326-2.237l11.758,10.305
			c6.616,5.799,16.596,5.47,22.817-0.75L313.864,150.9c6.22-6.221,6.549-16.201,0.75-22.817l-10.305-11.758
			c-17.306-19.751-16.322-49.766,2.238-68.326c19.535-19.535,51.319-19.535,70.855,0c9.929,9.929,15.092,23.211,14.543,37.393
			l-0.698,18.029c-0.376,9.725,7.609,17.711,17.334,17.334l18.03-0.697c14.181-0.55,27.463,4.613,37.392,14.543
			C483.539,154.137,483.539,185.921,464.002,205.456z"/>
	</g>
</g>
<g>
</g>
<g>
</g>
<g>
</g>
<g>
</g>
<g>
</g>
<g>
</g>
<g>
</g>
<g>
</g>
<g>
</g>
<g>
</g>
<g>
</g>
<g>
</g>
<g>
</g>
<g>
</g>
<g>
</g>
</svg>
